<svg version="1.1" id="Layer_1" xmlns="http://www.w3.org/2000/svg" xmlns:xlink="http://www.w3.org/1999/xlink" x="0px" y="0px" width="100%" viewBox="0 0 500 500" enable-background="new 0 0 500 500" xml:space="preserve">

<path fill="#FE9912" opacity="1.000000" stroke="none" d="
M278.298096,367.359436 
	C280.346985,371.775818 282.268311,375.801392 284.320831,380.101776 
	C276.933899,380.101776 269.292053,380.101776 260.916138,380.101776 
	C260.916138,378.461792 260.916138,376.714020 260.916138,374.966248 
	C260.916107,340.299866 260.916412,305.633484 260.914978,270.967102 
	C260.914917,269.300537 260.926361,267.633301 260.886810,265.967468 
	C260.606140,254.148056 257.849640,251.481247 245.248962,251.378799 
	C245.248962,294.254974 245.248962,337.133423 245.248962,380.277496 
	C236.237411,380.277496 227.811386,380.277496 218.447372,380.277496 
	C226.774841,369.495697 227.032059,358.131104 222.090363,346.206116 
	C221.631348,348.637329 221.325912,351.110046 220.682785,353.491547 
	C219.126770,359.253296 215.454895,361.671051 210.465759,360.414734 
	C205.619324,359.194336 203.267731,355.120453 204.489105,349.508545 
	C205.336548,345.614655 206.664673,341.827911 207.612640,337.952850 
	C209.532745,330.104034 208.028366,323.596313 203.095871,318.343048 
	C202.665359,320.250732 202.381332,322.055267 201.847214,323.782471 
	C199.425385,331.613983 190.111069,334.758942 183.644485,329.731506 
	C182.529617,328.864777 182.062927,326.600739 182.046310,324.974487 
	C181.918518,312.475891 181.975784,299.975433 181.975784,287.475525 
	C181.975739,230.642670 181.975754,173.809814 181.975754,116.976959 
	C181.975754,115.154373 181.975754,113.331795 181.975754,111.527710 
	C187.622391,111.118797 191.101913,114.548355 190.378052,120.268051 
	C189.860428,124.358116 188.523941,128.353653 187.440704,132.361069 
	C185.377502,139.993881 185.890625,147.072128 191.544983,153.490341 
	C193.725601,142.412109 198.359512,138.153152 206.383850,139.900009 
	C212.489792,141.229248 216.833496,145.348526 217.696823,151.248154 
	C218.588943,157.344589 217.788956,163.713852 217.460327,169.949600 
	C217.350449,172.034500 216.412231,174.075745 215.802643,176.321259 
	C225.179977,172.423248 231.189957,161.909561 230.356110,150.331116 
	C229.927399,144.377731 228.665161,138.485260 227.801224,132.562103 
	C226.818527,125.824768 229.399857,121.636223 234.847107,121.082123 
	C240.021515,120.555779 243.268753,123.922966 244.003738,130.603073 
	C244.146210,131.897812 244.219803,133.200134 244.336594,134.639740 
	C253.206345,127.093071 252.830978,108.909576 243.319473,91.168602 
	C259.490448,91.464218 275.470062,89.632019 291.044647,93.855736 
	C306.055786,97.926666 315.846344,108.181076 320.242371,122.765602 
	C327.521881,146.916321 327.827301,171.693359 324.310608,196.493515 
	C322.392639,210.019119 316.620514,221.580566 303.632263,229.017273 
	C317.573639,236.568741 321.801422,249.216660 322.196869,263.026825 
	C322.844666,285.651245 322.372131,308.307709 322.372131,330.971130 
	C316.290131,330.656616 311.224609,326.895447 310.306458,320.223877 
	C309.444885,313.963440 310.374359,307.438446 310.720459,301.040924 
	C310.824036,299.126587 311.615601,297.249451 312.340271,294.367981 
	C303.746918,299.356049 298.435181,305.917480 298.160187,314.822021 
	C297.901398,323.201782 299.488434,331.648743 300.403931,340.050781 
	C300.960754,345.161346 299.157990,348.720001 295.024994,349.997314 
	C289.935394,351.570312 286.217316,349.615601 284.751740,344.326447 
	C284.068542,341.860992 283.868164,339.261749 283.267365,335.623505 
	C276.958618,346.034790 276.030243,356.240845 278.298096,367.359436 
M264.971893,164.666672 
	C264.485321,161.383087 264.130280,158.072998 263.475739,154.823257 
	C262.799286,151.464828 260.578491,149.668304 257.111267,149.625015 
	C253.344315,149.577957 249.576324,149.614319 245.705704,149.614319 
	C245.705704,165.340973 245.705704,180.550430 245.705704,196.014526 
	C247.390289,196.014526 248.713303,196.009003 250.036240,196.015381 
	C260.905914,196.067719 262.765961,194.807892 264.267822,184.051590 
	C265.113586,177.994232 264.790588,171.773666 264.971893,164.666672 
z" data-index="1"></path>

<path fill="#F29211" opacity="1.000000" stroke="none" d="
M300.777527,373.712799 
	C308.641357,374.357880 314.097076,370.730499 314.771271,362.697510 
	C315.417755,354.994568 314.056274,347.123047 313.582825,339.416656 
	C317.268799,342.768921 321.554626,347.014679 321.937164,353.162292 
	C322.492249,362.082520 322.079437,371.062988 322.079437,380.553772 
	C313.755096,380.553772 305.810272,380.683411 297.879303,380.410614 
	C296.721954,380.370850 295.046936,378.604675 294.615601,377.304260 
	C293.186462,372.995850 292.216522,368.535126 291.097809,364.238190 
	C294.266693,367.424042 297.332642,370.506439 300.777527,373.712799 
z" data-index="3"></path>
<path fill="#F19111" opacity="1.000000" stroke="none" d="
M190.547821,358.474426 
	C191.100052,362.513458 191.179901,366.239777 192.098846,369.746216 
	C192.756683,372.256378 194.197632,376.081329 195.898895,376.441742 
	C198.449753,376.982147 201.638824,375.225952 204.349197,373.991333 
	C205.678131,373.385925 206.540558,371.756409 207.724701,370.470276 
	C208.373779,379.012329 207.031677,380.596985 199.375153,380.598083 
	C193.749817,380.598907 188.124466,380.598236 182.227798,380.598236 
	C182.227798,367.598297 182.227798,355.060394 182.227798,341.912872 
	C187.396347,346.424774 189.079025,352.160004 190.547821,358.474426 
z" data-index="4"></path>

<path fill="#F7F7F7" opacity="1.000000" stroke="none" d="
M444.986816,439.145081 
	C435.873413,439.145081 427.258911,439.145081 418.197784,439.145081 
	C418.110413,437.268280 418.029541,435.531555 417.932251,433.442505 
	C430.628906,433.442505 443.121490,433.442505 455.868347,433.442505 
	C455.868347,435.217285 455.868347,436.947540 455.868347,439.145081 
	C452.371674,439.145081 448.928711,439.145081 444.986816,439.145081 
z" data-index="6" style="visibility: hidden;"></path>

<path fill="#090501" opacity="1.000000" stroke="none" d="
M264.983002,165.146652 
	C264.790588,171.773666 265.113586,177.994232 264.267822,184.051590 
	C262.765961,194.807892 260.905914,196.067719 250.036240,196.015381 
	C248.713303,196.009003 247.390289,196.014526 245.705704,196.014526 
	C245.705704,180.550430 245.705704,165.340973 245.705704,149.614319 
	C249.576324,149.614319 253.344315,149.577957 257.111267,149.625015 
	C260.578491,149.668304 262.799286,151.464828 263.475739,154.823257 
	C264.130280,158.072998 264.485321,161.383087 264.983002,165.146652 
z" data-index="8" style="visibility: hidden;"></path>
</svg>